<svg width="17" height="16" viewBox="0 0 17 16" fill="none" xmlns="http://www.w3.org/2000/svg">
<g clip-path="url(#clip0_2986_11870)">
<path d="M1 9.8999C1.13261 9.8999 1.25979 9.95258 1.35355 10.0463C1.44732 10.1401 1.5 10.2673 1.5 10.3999V12.8999C1.5 13.1651 1.60536 13.4195 1.79289 13.607C1.98043 13.7945 2.23478 13.8999 2.5 13.8999H14.5C14.7652 13.8999 15.0196 13.7945 15.2071 13.607C15.3946 13.4195 15.5 13.1651 15.5 12.8999V10.3999C15.5 10.2673 15.5527 10.1401 15.6464 10.0463C15.7402 9.95258 15.8674 9.8999 16 9.8999C16.1326 9.8999 16.2598 9.95258 16.3536 10.0463C16.4473 10.1401 16.5 10.2673 16.5 10.3999V12.8999C16.5 13.4303 16.2893 13.939 15.9142 14.3141C15.5391 14.6892 15.0304 14.8999 14.5 14.8999H2.5C1.96957 14.8999 1.46086 14.6892 1.08579 14.3141C0.710714 13.939 0.5 13.4303 0.5 12.8999V10.3999C0.5 10.2673 0.552678 10.1401 0.646447 10.0463C0.740215 9.95258 0.867392 9.8999 1 9.8999Z" fill="#737373"/>
<path d="M8.14614 11.854C8.19259 11.9006 8.24776 11.9375 8.30851 11.9627C8.36926 11.9879 8.43438 12.0009 8.50014 12.0009C8.56591 12.0009 8.63103 11.9879 8.69178 11.9627C8.75252 11.9375 8.8077 11.9006 8.85414 11.854L11.8541 8.854C11.948 8.76011 12.0008 8.63278 12.0008 8.5C12.0008 8.36722 11.948 8.23989 11.8541 8.146C11.7603 8.05211 11.6329 7.99937 11.5001 7.99937C11.3674 7.99937 11.24 8.05211 11.1461 8.146L9.00014 10.293V1.5C9.00014 1.36739 8.94747 1.24021 8.8537 1.14645C8.75993 1.05268 8.63275 1 8.50014 1C8.36754 1 8.24036 1.05268 8.14659 1.14645C8.05282 1.24021 8.00014 1.36739 8.00014 1.5V10.293L5.85414 8.146C5.76026 8.05211 5.63292 7.99937 5.50014 7.99937C5.36737 7.99937 5.24003 8.05211 5.14614 8.146C5.05226 8.23989 4.99951 8.36722 4.99951 8.5C4.99951 8.63278 5.05226 8.76011 5.14614 8.854L8.14614 11.854Z" fill="#737373"/>
</g>
<defs>
<clipPath id="clip0_2986_11870">
<rect width="16" height="16" fill="white" transform="translate(0.5)"/>
</clipPath>
</defs>
</svg>
